<svg width="66" height="67" viewBox="0 0 66 67" fill="none" xmlns="http://www.w3.org/2000/svg">
<rect y="1" width="66" height="66" rx="8" fill="#333333"/>
<path d="M24.24 55.872C21.9627 55.872 20.2453 55.4987 19.088 54.752C17.9307 54.0053 17.3333 52.7733 17.296 51.056C17.296 50.6827 17.5013 50.496 17.912 50.496C18.248 50.496 18.752 50.5893 19.424 50.776C20.1333 50.9253 21.4587 51 23.4 51C26.6853 51 29.7093 50.664 32.472 49.992C35.2347 49.2827 37.624 48.3493 39.64 47.192C41.6933 45.9973 43.28 44.672 44.4 43.216C45.52 41.7227 46.08 40.1733 46.08 38.568C46.08 37.112 45.632 35.9547 44.736 35.096C43.8773 34.2 42.72 33.528 41.264 33.08C39.8453 32.5947 38.2773 32.2773 36.56 32.128C34.88 31.9787 33.2187 31.904 31.576 31.904C30.8667 31.904 30.1573 31.9227 29.448 31.96C28.7387 31.96 28.0667 31.96 27.432 31.96C26.6107 34.7973 25.808 37.728 25.024 40.752C24.24 43.776 23.4187 46.744 22.56 49.656C21.44 49.656 20.4693 49.3573 19.648 48.76C18.8267 48.1627 18.416 47.4347 18.416 46.576C18.416 46.24 18.472 45.8107 18.584 45.288C18.7333 44.728 18.9387 44.0747 19.2 43.328C19.424 42.6187 19.7973 41.4427 20.32 39.8C20.88 38.1573 21.5333 36.216 22.28 33.976C23.0267 31.736 23.848 29.384 24.744 26.92C25.6773 24.4187 26.6293 21.9733 27.6 19.584C28.608 17.1947 29.5973 15.048 30.568 13.144C29.0747 13.48 27.8427 13.872 26.872 14.32C25.9013 14.768 25.136 15.16 24.576 15.496C24.016 15.832 23.5867 16 23.288 16C23.064 16 22.7653 15.8693 22.392 15.608C22.056 15.3467 21.7387 15.048 21.44 14.712C21.1787 14.376 21.048 14.0773 21.048 13.816C23.064 12.9947 25.1547 12.2667 27.32 11.632C29.4853 10.9973 32.0987 10.68 35.16 10.68C36.504 10.68 37.9787 10.792 39.584 11.016C41.1893 11.2027 42.72 11.6133 44.176 12.248C45.632 12.8453 46.8267 13.76 47.76 14.992C48.7307 16.1867 49.216 17.792 49.216 19.808C49.216 21.4133 48.8613 22.8133 48.152 24.008C47.48 25.1653 46.5653 26.1733 45.408 27.032C44.2507 27.8533 42.9813 28.544 41.6 29.104C40.2187 29.6267 38.856 30.056 37.512 30.392C39.8267 30.6907 41.7493 31.176 43.28 31.848C44.848 32.4827 46.08 33.2293 46.976 34.088C47.9093 34.9467 48.5627 35.8427 48.936 36.776C49.3467 37.672 49.552 38.5493 49.552 39.408C49.552 41.6107 48.9733 43.5893 47.816 45.344C46.6587 47.0987 45.128 48.6293 43.224 49.936C41.3573 51.2427 39.2853 52.3253 37.008 53.184C34.768 54.08 32.528 54.752 30.288 55.2C28.048 55.648 26.032 55.872 24.24 55.872ZM27.992 29.832C30.0827 29.7573 32.136 29.5147 34.152 29.104C36.168 28.6933 37.9787 28.096 39.584 27.312C41.2267 26.4907 42.5333 25.4453 43.504 24.176C44.4747 22.8693 44.96 21.264 44.96 19.36C44.96 17.568 44.4747 16.1867 43.504 15.216C42.5333 14.2453 41.264 13.5733 39.696 13.2C38.128 12.8267 36.448 12.64 34.656 12.64C34.6187 12.64 34.5813 12.64 34.544 12.64C34.5067 12.64 34.4693 12.64 34.432 12.64C33.1627 15.1413 32.0053 17.8667 30.96 20.816C29.9147 23.728 28.9253 26.7333 27.992 29.832Z" fill="white"/>
</svg>
