<svg width="635" height="635" viewBox="0 0 635 635" fill="none" xmlns="http://www.w3.org/2000/svg">
<path d="M393.7 184.468C421.957 201.613 454.66 210.503 479.425 231.458C504.508 252.095 521.97 284.798 523.875 318.453C525.78 352.425 512.128 387.033 492.125 416.56C472.122 446.088 445.77 469.9 415.607 493.078C385.445 516.255 351.472 538.48 313.372 545.465C275.59 552.45 233.362 544.195 206.375 519.43C179.07 494.348 166.37 453.073 162.56 416.878C158.75 380.365 163.512 348.933 154.305 312.42C145.415 275.59 122.872 233.998 125.73 195.58C128.27 157.163 156.527 121.92 192.722 109.22C228.917 96.8375 273.05 106.363 307.34 124.143C341.63 141.605 365.443 167.323 393.7 184.468Z" fill="#FFACA7"/>
<g clip-path="url(#clip0_23_11)">
<path d="M393.776 319.306L351.862 340.375H385.95C383.164 347.046 380.064 353.528 376.602 359.696L328.726 383.5H359.674C338.233 407.178 307.607 419.59 264.103 407.228L239.486 437.833C236.096 442.046 230.611 442.044 227.222 437.833C223.835 433.621 223.835 426.8 227.222 422.586L318.783 308.754C320.534 305.935 320.46 301.931 318.381 299.343C316.122 296.536 312.462 296.536 310.207 299.343L249.287 375.081C233.874 237.054 357.571 214.647 398.04 211.038C404.858 210.43 410.473 217.412 409.982 225.884C408.808 246.277 405.122 283.683 393.776 319.306Z" fill="white"/>
</g>
<defs>
<clipPath id="clip0_23_11">
<rect width="185" height="230" fill="white" transform="translate(225 211)"/>
</clipPath>
</defs>
</svg>
