<svg width="123" height="137" viewBox="0 0 123 137" fill="none" xmlns="http://www.w3.org/2000/svg">
<path d="M82.28 25.3568C90.913 30.5948 100.904 33.3108 108.47 39.7128C116.133 46.0178 121.468 56.0088 122.05 66.2908C122.632 76.6698 118.461 87.2428 112.35 96.2638C106.239 105.285 98.188 112.56 88.973 119.641C79.758 126.722 69.379 133.512 57.739 135.646C46.196 137.78 33.295 135.258 25.05 127.692C16.708 120.029 12.828 107.419 11.664 96.3608C10.5 85.2058 11.955 75.6028 9.14199 64.4478C6.42599 53.1958 -0.461007 40.4888 0.411993 28.7518C1.18799 17.0148 9.821 6.2478 20.879 2.3678C31.937 -1.4152 45.42 1.4948 55.896 6.9268C66.372 12.2618 73.647 20.1188 82.28 25.3568Z" fill="#75C3D0"/>
</svg>
