<svg width="55" height="57" viewBox="0 0 55 57" fill="none" xmlns="http://www.w3.org/2000/svg">
<path d="M27.5061 13.6469C19.7025 13.6469 13.408 20.0594 13.408 28.0094C13.408 35.9594 19.7025 42.3719 27.5061 42.3719C35.3098 42.3719 41.6043 35.9594 41.6043 28.0094C41.6043 20.0594 35.3098 13.6469 27.5061 13.6469ZM27.5061 37.3469C22.4632 37.3469 18.3405 33.1594 18.3405 28.0094C18.3405 22.8594 22.4509 18.6719 27.5061 18.6719C32.5614 18.6719 36.6718 22.8594 36.6718 28.0094C36.6718 33.1594 32.5491 37.3469 27.5061 37.3469ZM45.4693 13.0594C45.4693 14.9219 43.9969 16.4094 42.181 16.4094C40.3528 16.4094 38.8926 14.9094 38.8926 13.0594C38.8926 11.2094 40.365 9.70937 42.181 9.70937C43.9969 9.70937 45.4693 11.2094 45.4693 13.0594ZM54.8068 16.4594C54.5982 11.9719 53.592 7.99687 50.365 4.72187C47.1503 1.44687 43.2485 0.421875 38.8436 0.196875C34.3037 -0.065625 20.6963 -0.065625 16.1564 0.196875C11.7638 0.409375 7.86196 1.43437 4.63497 4.70937C1.40798 7.98438 0.41411 11.9594 0.193252 16.4469C-0.0644172 21.0719 -0.0644172 34.9344 0.193252 39.5594C0.40184 44.0469 1.40798 48.0219 4.63497 51.2969C7.86196 54.5719 11.7515 55.5969 16.1564 55.8219C20.6963 56.0844 34.3037 56.0844 38.8436 55.8219C43.2485 55.6094 47.1503 54.5844 50.365 51.2969C53.5798 48.0219 54.5859 44.0469 54.8068 39.5594C55.0644 34.9344 55.0644 21.0844 54.8068 16.4594ZM48.9417 44.5219C47.9847 46.9719 46.1319 48.8594 43.7147 49.8469C40.0951 51.3094 31.5061 50.9719 27.5061 50.9719C23.5061 50.9719 14.9049 51.2969 11.2975 49.8469C8.89264 48.8719 7.03988 46.9844 6.07055 44.5219C4.63497 40.8344 4.96626 32.0844 4.96626 28.0094C4.96626 23.9344 4.64724 15.1719 6.07055 11.4969C7.02761 9.04688 8.88037 7.15937 11.2975 6.17187C14.9172 4.70937 23.5061 5.04687 27.5061 5.04687C31.5061 5.04687 40.1074 4.72187 43.7147 6.17187C46.1196 7.14687 47.9724 9.03437 48.9417 11.4969C50.3773 15.1844 50.046 23.9344 50.046 28.0094C50.046 32.0844 50.3773 40.8469 48.9417 44.5219Z" fill="white"/>
</svg>
