<svg width="48" height="55" viewBox="0 0 48 55" fill="none" xmlns="http://www.w3.org/2000/svg">
<path d="M10.7443 48.1249H0.792857V15.995H10.7443V48.1249ZM5.76321 11.6122C2.58107 11.6122 0 8.96963 0 5.7792C2.27764e-08 4.24672 0.607194 2.77701 1.68801 1.69338C2.76882 0.609752 4.23471 0.000976562 5.76321 0.000976562C7.29171 0.000976562 8.75761 0.609752 9.83842 1.69338C10.9192 2.77701 11.5264 4.24672 11.5264 5.7792C11.5264 8.96963 8.94429 11.6122 5.76321 11.6122ZM47.9893 48.1249H38.0593V32.4843C38.0593 28.7567 37.9843 23.9765 32.8854 23.9765C27.7114 23.9765 26.9186 28.0263 26.9186 32.2157V48.1249H16.9779V15.995H26.5221V20.3778H26.6614C27.99 17.8534 31.2354 15.1894 36.0771 15.1894C46.1486 15.1894 48 21.8388 48 30.4755V48.1249H47.9893Z" fill="white"/>
</svg>
