<svg width="33" height="46" viewBox="0 0 33 46" fill="none" xmlns="http://www.w3.org/2000/svg">
<path d="M7.24 45.872C4.96267 45.872 3.24533 45.4987 2.088 44.752C0.930667 44.0053 0.333333 42.7733 0.296 41.056C0.296 40.6827 0.501333 40.496 0.912 40.496C1.248 40.496 1.752 40.5893 2.424 40.776C3.13333 40.9253 4.45867 41 6.4 41C9.68533 41 12.7093 40.664 15.472 39.992C18.2347 39.2827 20.624 38.3493 22.64 37.192C24.6933 35.9973 26.28 34.672 27.4 33.216C28.52 31.7227 29.08 30.1733 29.08 28.568C29.08 27.112 28.632 25.9547 27.736 25.096C26.8773 24.2 25.72 23.528 24.264 23.08C22.8453 22.5947 21.2773 22.2773 19.56 22.128C17.88 21.9787 16.2187 21.904 14.576 21.904C13.8667 21.904 13.1573 21.9227 12.448 21.96C11.7387 21.96 11.0667 21.96 10.432 21.96C9.61067 24.7973 8.808 27.728 8.024 30.752C7.24 33.776 6.41867 36.744 5.56 39.656C4.44 39.656 3.46933 39.3573 2.648 38.76C1.82667 38.1627 1.416 37.4347 1.416 36.576C1.416 36.24 1.472 35.8107 1.584 35.288C1.73333 34.728 1.93867 34.0747 2.2 33.328C2.424 32.6187 2.79733 31.4427 3.32 29.8C3.88 28.1573 4.53333 26.216 5.28 23.976C6.02667 21.736 6.848 19.384 7.744 16.92C8.67733 14.4187 9.62933 11.9733 10.6 9.584C11.608 7.19467 12.5973 5.048 13.568 3.144C12.0747 3.48 10.8427 3.872 9.872 4.32C8.90133 4.768 8.136 5.16 7.576 5.496C7.016 5.832 6.58667 6 6.288 6C6.064 6 5.76533 5.86933 5.392 5.608C5.056 5.34666 4.73867 5.048 4.44 4.712C4.17867 4.376 4.048 4.07733 4.048 3.816C6.064 2.99466 8.15467 2.26666 10.32 1.632C12.4853 0.997332 15.0987 0.679998 18.16 0.679998C19.504 0.679998 20.9787 0.791998 22.584 1.016C24.1893 1.20266 25.72 1.61333 27.176 2.248C28.632 2.84533 29.8267 3.76 30.76 4.992C31.7307 6.18667 32.216 7.792 32.216 9.808C32.216 11.4133 31.8613 12.8133 31.152 14.008C30.48 15.1653 29.5653 16.1733 28.408 17.032C27.2507 17.8533 25.9813 18.544 24.6 19.104C23.2187 19.6267 21.856 20.056 20.512 20.392C22.8267 20.6907 24.7493 21.176 26.28 21.848C27.848 22.4827 29.08 23.2293 29.976 24.088C30.9093 24.9467 31.5627 25.8427 31.936 26.776C32.3467 27.672 32.552 28.5493 32.552 29.408C32.552 31.6107 31.9733 33.5893 30.816 35.344C29.6587 37.0987 28.128 38.6293 26.224 39.936C24.3573 41.2427 22.2853 42.3253 20.008 43.184C17.768 44.08 15.528 44.752 13.288 45.2C11.048 45.648 9.032 45.872 7.24 45.872ZM10.992 19.832C13.0827 19.7573 15.136 19.5147 17.152 19.104C19.168 18.6933 20.9787 18.096 22.584 17.312C24.2267 16.4907 25.5333 15.4453 26.504 14.176C27.4747 12.8693 27.96 11.264 27.96 9.36C27.96 7.568 27.4747 6.18666 26.504 5.216C25.5333 4.24533 24.264 3.57333 22.696 3.2C21.128 2.82666 19.448 2.64 17.656 2.64C17.6187 2.64 17.5813 2.64 17.544 2.64C17.5067 2.64 17.4693 2.64 17.432 2.64C16.1627 5.14133 15.0053 7.86666 13.96 10.816C12.9147 13.728 11.9253 16.7333 10.992 19.832Z" fill="white"/>
</svg>
