<svg width="49" height="56" viewBox="0 0 49 56" fill="none" xmlns="http://www.w3.org/2000/svg">
<path d="M10.5 24.5C9.26625 24.5 8.09922 24.7516 7 25.1453V24.5C7 20.6391 10.1391 17.5 14 17.5C15.9327 17.5 17.5 15.9327 17.5 14C17.5 12.0673 15.9359 10.5 14 10.5C6.28031 10.5 0 16.7781 0 24.5V35C0 40.7991 4.70094 45.5 10.5 45.5C16.2991 45.5 21 40.7991 21 35C21 29.2009 16.2969 24.5 10.5 24.5ZM38.5 24.5C37.2663 24.5 36.0992 24.7521 35 25.143V24.5C35 20.6391 38.1391 17.5 42 17.5C43.9327 17.5 45.5 15.9327 45.5 14C45.5 12.0673 43.9327 10.5 42 10.5C34.2803 10.5 28 16.7803 28 24.5V35C28 40.7991 32.7009 45.5 38.5 45.5C44.2991 45.5 49 40.7991 49 35C49 29.2009 44.2969 24.5 38.5 24.5Z" fill="#FFACA7"/>
</svg>
