<svg width="25" height="26" viewBox="0 0 25 26" fill="none" xmlns="http://www.w3.org/2000/svg">
<g clip-path="url(#clip0_30_20)">
<path d="M24.0355 14.1477L15.4166 22.2727C15.0826 22.5926 14.6409 22.75 14.1992 22.75C13.7574 22.75 13.3168 22.5914 12.9807 22.274C12.3073 21.6392 12.3073 20.6109 12.9807 19.9761L18.6595 14.625H2.13267C1.18081 14.625 0.408966 13.8989 0.408966 13C0.408966 12.1012 1.18081 11.375 2.13267 11.375H18.6595L12.9817 6.0227C12.3084 5.38794 12.3084 4.35962 12.9817 3.72485C13.6551 3.09009 14.7459 3.09009 15.4193 3.72485L24.0382 11.8499C24.7089 12.4872 24.7089 13.5129 24.0355 14.1477Z" fill="black"/>
</g>
<defs>
<clipPath id="clip0_30_20">
<rect width="24.133" height="26" fill="white" transform="translate(0.408875)"/>
</clipPath>
</defs>
</svg>
