<svg width="55" height="55" viewBox="0 0 55 55" fill="none" xmlns="http://www.w3.org/2000/svg">
<path d="M49.3464 16.2976C49.3813 16.7862 49.3813 17.2748 49.3813 17.7634C49.3813 32.6649 38.0394 49.835 17.3096 49.835C10.9232 49.835 4.9905 47.9853 0 44.7748C0.907393 44.8794 1.77977 44.9144 2.72207 44.9144C7.99165 44.9144 12.8426 43.1346 16.7163 40.0984C11.7608 39.9937 7.60783 36.7481 6.17697 32.2811C6.875 32.3857 7.57292 32.4556 8.30586 32.4556C9.31788 32.4556 10.33 32.3159 11.2722 32.0717C6.10726 31.0247 2.23341 26.488 2.23341 21.0089V20.8694C3.73398 21.7069 5.47905 22.2304 7.32854 22.3001C4.29236 20.276 2.30323 16.8211 2.30323 12.9124C2.30323 10.8185 2.8615 8.89913 3.83872 7.22399C9.3876 14.0641 17.7284 18.531 27.0811 19.0197C26.9066 18.1821 26.8019 17.3097 26.8019 16.4372C26.8019 10.2253 31.8273 5.16504 38.0741 5.16504C41.3196 5.16504 44.251 6.52607 46.3101 8.72468C48.8576 8.23612 51.3005 7.29382 53.4643 6.00261C52.6266 8.62005 50.8469 10.8187 48.5087 12.2145C50.7771 11.9703 52.9757 11.342 54.9998 10.4696C53.4645 12.703 51.545 14.6922 49.3464 16.2976Z" fill="white"/>
</svg>
