<svg width="76" height="57" viewBox="0 0 76 57" fill="none" xmlns="http://www.w3.org/2000/svg">
<g clip-path="url(#clip0_30_4)">
<path d="M37.941 35.625C44.6758 35.625 50.0356 30.4416 50.0356 24.0469C50.0356 17.6522 44.5761 12.4688 37.941 12.4688C31.2063 12.4688 25.8465 17.6522 25.8465 24.0469C25.7409 30.4371 31.2075 35.625 37.941 35.625ZM43.8065 39.1875H32.099C22.8903 39.1875 15.4294 45.8338 15.4294 54.0275C15.4294 55.6752 16.9192 57 18.761 57H57.1446C58.9863 57 60.4762 55.6752 60.4762 54.0275C60.4762 45.8338 53.0153 39.1875 43.8065 39.1875ZM60.4762 17.8125C65.6589 17.8125 69.8609 13.8247 69.8609 8.90625C69.8609 3.98777 65.6612 0 60.4762 0C55.2934 0 51.0914 3.98777 51.0914 8.90625C51.0914 13.8247 55.2911 17.8125 60.4762 17.8125ZM21.987 24.0469C21.987 23.4402 22.1022 22.8635 22.1757 22.2756C20.896 21.6088 19.4883 21.375 17.9985 21.375H10.7464C5.04047 21.375 0.413788 26.0285 0.413788 31.7619C0.413788 32.9086 1.33901 33.8438 2.48078 33.8438H25.884C23.4885 31.1941 21.987 27.7986 21.987 24.0469ZM15.4294 17.8125C20.6121 17.8125 24.8141 13.8247 24.8141 8.90625C24.8141 3.98777 20.6145 0 15.4294 0C10.2467 0 6.04464 3.98777 6.04464 8.90625C6.04464 13.8247 10.2467 17.8125 15.4294 17.8125ZM65.1568 21.375H57.9024C56.4008 21.375 54.9837 21.7131 53.6957 22.2923C53.7661 22.8779 53.8834 23.4457 53.8834 24.0469C53.8834 27.7997 52.3842 31.1953 49.9934 33.8438H73.4201C74.565 33.8438 75.4918 32.9086 75.4918 31.7619C75.4918 26.0285 70.8698 21.375 65.1568 21.375Z" fill="#75C3D0"/>
</g>
<defs>
<clipPath id="clip0_30_4">
<rect width="75.078" height="57" fill="white" transform="translate(0.413788)"/>
</clipPath>
</defs>
</svg>
