<svg width="49" height="57" viewBox="0 0 49 57" fill="none" xmlns="http://www.w3.org/2000/svg">
<path d="M19.1406 41.8594L14.4292 40.0325C13.7316 39.7615 13.7316 38.613 14.4292 38.3425L19.1406 36.5156L20.7111 31.0349C20.9441 30.2235 21.9313 30.2235 22.1639 31.0349L23.7344 36.5156L28.4458 38.3425C29.1434 38.6135 29.1434 39.762 28.4458 40.0325L23.7344 41.8594L22.9688 46.3125H42.875L34.6082 23.8687C34.0129 22.2656 33.9555 20.4621 34.434 18.8033L39.8125 0L21.8586 11.9455C19.6 13.4484 17.7146 15.7418 16.748 18.525L6.125 46.3125H19.9062L19.1406 41.8594ZM22.1266 19.193L24.5 17.8125L25.6886 15.0471C25.83 14.7188 26.2322 14.7188 26.3735 15.0471L27.5625 17.8125L29.9398 19.1952C30.222 19.3596 30.222 19.8275 29.9398 19.9919L27.5625 21.375L26.3739 24.1404C26.2325 24.4687 25.8303 24.4687 25.689 24.1404L24.5 21.375L22.1266 19.9945C21.8395 19.8275 21.8395 19.36 22.1266 19.193ZM47.4688 49.875H1.53125C0.685617 49.875 0 50.6766 0 51.6562C0 54.6064 2.05666 57 4.59375 57H44.4062C46.9433 57 49 54.6076 49 51.6562C49 50.6766 48.3109 49.875 47.4688 49.875Z" fill="#75C3D0"/>
</svg>
